<svg xmlns="http://www.w3.org/2000/svg" xmlns:xlink="http://www.w3.org/1999/xlink" width="512" height="512" viewBox="0 0 511.168 511.168" xmlns:v="https://vecta.io/nano"><path d="M16.696 96.479h385.635v107.293H16.696z" fill="#ffda45"/><path d="m359.331 96.479h43v107.293h-43z" fill="#fac800"/><path d="m237.834 96.479h122v107.293h-122z" fill="#fff5f5"/><path d="M482.168 503.668H99.501c-31.296 0-56.667-25.371-56.667-56.667s25.371-56.667 56.667-56.667h382.667z" fill="#f0f5fa"/><path d="m442.168 390.335h40v113.333h-40z" fill="#e4ecf2"/><path d="M502.167 511.168H99.501c-35.381 0-64.167-28.785-64.167-64.167s28.785-64.167 64.167-64.167h402.667a7.5 7.5 0 1 1 0 15H99.501c-27.11 0-49.167 22.056-49.167 49.167s22.056 49.167 49.167 49.167h402.667a7.5 7.5 0 1 1-.001 15z" fill="#6e9eff"/><path d="M482.167 435.613H173.258a7.5 7.5 0 1 1 0-15h308.909zm0 37.778H255.278a7.5 7.5 0 1 1 0-15h226.889z" fill="#c5d7e6"/><path d="M418.028 375.377H45.675c-20.254 0-36.674-16.419-36.674-36.674s16.419-36.674 36.674-36.674h372.354v73.348z" fill="#f0f5fa"/><path d="m378.028 302.029h40v73.348h-40z" fill="#e4ecf2"/><path d="M440.972 382.877H45.675c-24.357 0-44.174-19.816-44.174-44.174s19.816-44.174 44.174-44.174h395.297a7.5 7.5 0 1 1 0 15H45.675c-16.086 0-29.174 13.087-29.174 29.174s13.087 29.174 29.174 29.174h395.297a7.5 7.5 0 1 1 0 15z" fill="#74d84b"/><path d="M418.028 347.761H312.713a7.5 7.5 0 1 1 0-15h105.315z" fill="#c5d7e6"/><path d="M133.046 7.5h298.87c22.5 0 40.739 18.24 40.739 40.739s-18.24 40.739-40.739 40.739h-298.87z" fill="#f0f5fa"/><path d="M431.916 7.5h-40c22.5 0 40.739 18.24 40.739 40.739s-18.24 40.739-40.739 40.739h40c22.5 0 40.739-18.24 40.739-40.739S454.416 7.5 431.916 7.5z" fill="#e4ecf2"/><path d="M431.916 96.479H107.559a7.5 7.5 0 1 1 0-15h324.357c18.328 0 33.239-14.911 33.239-33.239S450.244 15 431.916 15H107.559a7.5 7.5 0 1 1 0-15h324.357c26.599 0 48.239 21.64 48.239 48.239s-21.64 48.24-48.239 48.24z" fill="#fc435f"/><path d="M60.099 203.771h445.902v90.758H60.099z" fill="#6e9eff"/><path d="M369.834 203.771h136.167v90.758H369.834z" fill="#bf6930"/><path d="m466.001 203.771h40v90.758h-40z" fill="#ad5f2c"/><path d="M213.501 264.15H111.492c-8.284 0-15-6.716-15-15s6.716-15 15-15h102.009c8.284 0 15 6.716 15 15s-6.716 15-15 15zm249.166-7.5h-48.833a7.5 7.5 0 1 1 0-15h48.833a7.5 7.5 0 1 1 0 15z" fill="#fff5f5"/><g fill="#677a8f"><use xlink:href="#B"/><use xlink:href="#B" x="-27.333"/><use xlink:href="#B" x="-54.666"/></g><path d="M132.834 40.739h171.138a7.5 7.5 0 1 1 0 15H132.834z" fill="#c5d7e6"/><defs ><path id="B" d="M326.167 166.956a7.5 7.5 0 0 1-7.5-7.5v-18.662a7.5 7.5 0 1 1 15 0v18.662a7.5 7.5 0 0 1-7.5 7.5z"/></defs></svg>