<svg xmlns="http://www.w3.org/2000/svg" width="512" height="512" xmlns:v="https://vecta.io/nano"><path d="M503.707 220.137c0-117.34-95.133-212.465-212.488-212.465S78.727 102.797 78.727 220.137s95.137 212.465 212.492 212.465 212.488-95.121 212.488-212.465zm0 0" fill="#71d8fd"/><path d="M300.477 7.887c88.117 30.281 151.445 113.867 151.445 212.25s-63.328 181.973-151.445 212.254c113.059-4.848 203.23-98.012 203.23-212.254S413.535 12.734 300.477 7.887zm0 0" fill="#60c3f7"/><path d="M446.898 64.477C405.313 22.898 350.023 0 291.219 0S177.121 22.898 135.535 64.477s-64.484 96.859-64.484 155.66 22.902 114.086 64.484 155.664 96.875 64.477 155.684 64.477 114.094-22.898 155.68-64.477 64.484-96.863 64.484-155.664-22.902-114.082-64.484-155.66zM410.68 212.465c-.492-26.969-3.578-53.105-9.031-77.383 13.016 4.195 25.199 9.164 36.32 14.867 33.754 17.301 53.828 39.262 57.461 62.516zm-15.348 4.777h-96.441v-98.27c30.309.555 59.449 4.398 85.828 11.207 6.43 25.434 10.066 58.102 10.613 87.063zm-96.441-113.621V15.914c24.074 3.535 46.789 23.66 64.637 57.563 6.371 12.098 11.848 25.445 16.383 39.754-25.293-5.82-52.699-9.102-81.02-9.609zM283.543 15.91v87.711c-28.32.504-55.727 3.789-81.02 9.609 4.535-14.312 10.012-27.66 16.379-39.754 17.855-33.902 40.566-54.027 64.641-57.566zm0 103.063v98.27h-96.441c.547-28.961 4.184-61.625 10.613-87.062 26.379-6.809 55.52-10.652 85.828-11.207zm-111.789 93.492H87.008c3.629-23.254 23.707-45.215 57.457-62.516 11.121-5.703 23.305-10.672 36.32-14.867-5.457 24.277-8.539 50.414-9.031 77.383zm0 15.348c.492 26.969 3.578 53.102 9.031 77.379-13.016-4.195-25.199-9.164-36.32-14.863-33.75-17.301-53.828-39.262-57.461-62.516zm15.348 0h96.441v93.492c-30.309-.555-59.449-4.398-85.828-11.207-6.43-25.437-10.066-53.324-10.613-82.285zm96.441 108.84v87.711c-24.074-3.539-46.785-23.66-64.641-57.562-6.367-12.098-11.844-25.445-16.379-39.754 25.297 5.82 52.699 9.102 81.02 9.605zm15.348 87.711v-87.707c28.32-.504 55.723-3.789 81.02-9.609-4.535 14.313-10.012 27.66-16.383 39.754-17.848 33.902-40.562 54.027-64.637 57.563zm0-103.059v-93.492h96.438c-.547 28.961-4.18 56.848-10.609 82.285-26.379 6.809-55.52 10.652-85.828 11.207zm111.789-93.492h84.75c-3.633 23.254-23.707 45.215-57.461 62.516-11.121 5.699-23.305 10.668-36.32 14.863 5.453-24.277 8.539-50.41 9.031-77.379zm78.859-58.918c-10.984-12.043-25.957-23.062-44.566-32.602-14.406-7.387-30.457-13.605-47.711-18.574-5.273-18.66-12.031-35.965-20.152-51.391-9.641-18.309-20.746-33.082-32.871-44.008 70.988 19.039 126.883 75.348 145.301 146.574zM238.195 22.32c-12.125 10.926-23.23 25.699-32.871 44.008-8.121 15.426-14.879 32.73-20.152 51.391-17.254 4.969-33.305 11.191-47.707 18.574-18.613 9.539-33.586 20.559-44.57 32.602C111.313 97.668 167.207 41.359 238.195 22.32zM92.895 271.379c10.984 12.047 25.957 23.066 44.57 32.605 14.402 7.383 30.453 13.602 47.707 18.574 5.273 18.66 12.031 35.965 20.152 51.391 9.641 18.309 20.746 33.082 32.871 44.008-70.988-19.043-126.883-75.348-145.301-146.578zm251.344 146.578c12.125-10.926 23.23-25.699 32.871-44.008 8.121-15.426 14.879-32.73 20.152-51.391 17.254-4.969 33.305-11.191 47.711-18.574 18.609-9.539 33.582-20.559 44.57-32.602-18.422 71.227-74.316 127.535-145.305 146.574zm0 0" fill="#54a1ff"/><path d="M495.008 359.453c-4.238 0-7.676 3.434-7.676 7.672v64.891c0 14.09-11.465 25.555-25.555 25.555h-11.664l7.426-7.426c2.996-2.996 2.996-7.855 0-10.852s-7.855-2.996-10.852 0l-19.621 19.617a7.66 7.66 0 0 0-3.344 6.332c0 .031.004.063.004.094s-.004.063-.004.098a7.67 7.67 0 0 0 2.25 5.426l20.34 20.336a7.65 7.65 0 0 0 5.426 2.246c1.961 0 3.926-.75 5.426-2.246 2.996-2.996 2.996-7.855 0-10.852l-7.43-7.426h12.043c22.555 0 40.902-18.348 40.902-40.898v-64.891c0-4.242-3.434-7.676-7.672-7.676zm0 0" fill="#d2555f"/><path d="M98.227 34.109l-20.34-20.336a7.68 7.68 0 0 0-10.855 0c-2.996 2.996-2.996 7.855 0 10.852l7.43 7.426H62.422c-22.555 0-40.906 18.348-40.906 40.898v64.895a7.68 7.68 0 0 0 7.676 7.672c4.238 0 7.672-3.437 7.672-7.672V72.949c0-14.09 11.465-25.551 25.559-25.551h11.664l-7.43 7.426c-2.996 2.996-2.996 7.855 0 10.852 1.5 1.496 3.465 2.246 5.43 2.246s3.926-.75 5.426-2.246l19.621-19.621c2.016-1.383 3.34-3.703 3.34-6.332 0-.031-.004-.059-.004-.09.023-1.996-.719-4-2.242-5.523zm0 0" fill="#87b45f"/><path d="M446.898 64.477C405.313 22.898 350.023 0 291.219 0a225.55 225.55 0 0 0-16.934.641c31.203 6.617 60.008 19.719 84.941 37.824-4.785-6.07-9.793-11.465-14.988-16.145 70.988 19.039 126.883 75.348 145.301 146.574-10.984-12.043-25.957-23.062-44.566-32.602-3.746-1.922-7.609-3.758-11.57-5.52 2.957 6.801 5.586 13.777 7.867 20.91 31.758 17.02 50.645 38.297 54.156 60.781h-43.648c.086 2.551.145 5.105.145 7.672s-.059 5.125-.145 7.676h43.648c-3.512 22.484-22.398 43.758-54.156 60.781-2.281 7.133-4.91 14.105-7.867 20.91 3.961-1.762 7.824-3.602 11.57-5.52 18.609-9.539 33.582-20.559 44.566-32.602-18.418 71.227-74.312 127.535-145.301 146.574 5.199-4.68 10.203-10.074 14.992-16.145-24.937 18.105-53.742 31.207-84.945 37.824a225.55 225.55 0 0 0 16.934.641c58.805 0 114.094-22.898 155.68-64.477s64.484-96.863 64.484-155.664-22.902-114.082-64.484-155.66zm0 0" fill="#4a7fdd"/><path d="M367.332 512H35.754C16.008 512 0 495.996 0 476.254V185.598A6.6 6.6 0 0 1 6.598 179H146.32c2.203 0 4.262 1.102 5.484 2.934l19.449 29.133c1.223 1.832 3.281 2.934 5.484 2.934h219.754c3.641 0 6.594 2.953 6.594 6.594v255.66c0 19.742-16.008 35.746-35.754 35.746zm0 0" fill="#ffcd74"/><path d="M396.488 214h-219.75a6.6 6.6 0 0 1-5.488-2.934l-19.445-29.133c-1.223-1.832-3.281-2.934-5.484-2.934H6.598A6.6 6.6 0 0 0 0 185.598v26.199h96.008c13.145 0 25.422 6.563 32.723 17.496a39.34 39.34 0 0 0 32.723 17.5h169.492c21.73 0 39.344 17.613 39.344 39.336v222.918c0 .953-.051 1.895-.125 2.828 18.422-1.445 32.922-16.836 32.922-35.625V220.594c0-3.641-2.953-6.594-6.598-6.594zm0 0" fill="#ffb96a"/><path d="M101.266 402.598v-91.543c0-1.785.797-3.195 2.395-4.23s3.48-1.551 5.645-1.551h49.234c1.879 0 3.289.773 4.23 2.324s1.414 3.41 1.414 5.574c0 2.258-.496 4.184-1.484 5.781s-2.375 2.398-4.16 2.398h-38.937v28.211h21.586c1.785 0 3.172.703 4.16 2.117s1.48 3.148 1.48 5.219c0 1.879-.492 3.523-1.48 4.938-.988 1.406-2.375 2.113-4.16 2.113h-21.586v38.648c0 1.789-.914 3.199-2.75 4.234s-3.973 1.551-6.418 1.551c-2.539 0-4.703-.516-6.488-1.551s-2.68-2.445-2.68-4.234zm64.89-89.352c0-2.109.492-3.961 1.48-5.566s2.422-2.406 4.305-2.406h59.672c1.879 0 3.313.801 4.301 2.406s1.484 3.457 1.484 5.566c0 2.199-.52 4.098-1.555 5.703s-2.445 2.402-4.23 2.402h-20.598v81.219c0 1.797-.918 3.215-2.75 4.254s-3.977 1.559-6.418 1.559c-2.539 0-4.703-.52-6.492-1.559s-2.68-2.457-2.68-4.254v-81.219h-20.734c-1.789 0-3.199-.777-4.234-2.336s-1.551-3.48-1.551-5.77zm81.254 89.352v-91.684c0-1.504.637-2.82 1.906-3.949s2.938-1.691 5.008-1.691h28.355c9.684 0 17.445 2.563 23.277 7.688s8.746 13.141 8.746 24.047v.848c0 11-3.035 19.09-9.102 24.262s-14.082 7.758-24.051 7.758H265.75V402.6c0 1.789-.914 3.199-2.75 4.23-1.836 1.039-3.973 1.555-6.418 1.555-2.539 0-4.703-.516-6.488-1.555-1.789-1.031-2.684-2.441-2.684-4.23zm18.34-47.109h15.801c4.703 0 8.348-1.363 10.934-4.09s3.879-6.77 3.879-12.133v-1.691c0-5.359-1.293-9.402-3.879-12.133-2.586-2.723-6.23-4.09-10.934-4.09H265.75zm0 0" fill="#ff6469"/></svg>