<svg xmlns="http://www.w3.org/2000/svg" width="512" height="512" viewBox="0 0 512 512.001" xmlns:v="https://vecta.io/nano"><path d="M283.473 95.945a13.88 13.88 0 0 1-13.875-13.875V34.492a6.75 6.75 0 0 0-6.738-6.738H129.645a6.75 6.75 0 0 0-6.738 6.738V82.07a13.88 13.88 0 0 1-13.875 13.875c-7.664 0-13.879-6.215-13.879-13.875V34.492C95.152 15.473 110.625 0 129.645 0h133.215c19.02 0 34.492 15.473 34.492 34.492V82.07c0 7.66-6.215 13.875-13.879 13.875zm0 0" fill="#c9885b"/><path d="M392.5 83.676v226.91c0 5.254-.766 10.32-2.176 15.098-6.508 21.945-26.824 37.961-50.883 37.961H53.059c-29.305 0-53.055-23.762-53.055-53.059V83.676a17.64 17.64 0 0 1 17.641-17.641h357.219A17.64 17.64 0 0 1 392.5 83.676zm0 0" fill="#daae91"/><g fill="#d19a75"><path d="M392.5 83.676v51.301c0 14.098-3.902 27.285-10.684 38.543-13.086 21.688-36.867 36.191-64.051 36.191H74.734C33.457 209.711 0 176.258 0 134.977V83.676c0-9.746 7.898-17.641 17.645-17.641h357.215A17.64 17.64 0 0 1 392.5 83.676zm0 0"/><path d="M390.332 325.688c-6.516 21.934-26.828 37.953-50.891 37.953H53.055C23.746 363.641 0 339.895 0 310.582V83.68c0-9.754 7.906-17.637 17.637-17.637h18.117v208.77c0 29.293 23.746 53.055 53.055 53.055h286.383c5.266 0 10.352-.754 15.141-2.18zm0 0"/></g><path d="M319.48 246.527h-23.012c-4.812 0-8.707-3.898-8.707-8.707v-56.77c0-4.809 3.895-8.707 8.707-8.707h23.016a8.71 8.71 0 0 1 8.707 8.707v56.77c-.004 4.809-3.902 8.707-8.711 8.707zm0 0" fill="#9b5e34"/><path d="M381.813 173.523c-13.078 21.688-36.863 36.191-64.039 36.191H74.742C33.465 209.715 0 176.254 0 134.973V83.68c0-9.754 7.906-17.637 17.637-17.637h18.117v38.285c0 41.277 33.461 74.742 74.742 74.742h243.027c10.016 0 19.574-1.973 28.289-5.547zm0 0" fill="#c9885b"/><path d="M328.188 181.055v27.934c-3.398.477-6.883.723-10.422.723h-30.012v-28.656c0-4.809 3.906-8.715 8.715-8.715h23.004c4.824 0 8.715 3.906 8.715 8.715zm0 0" fill="#b56d3c"/><path d="M96.117 246.527H73.102a8.71 8.71 0 0 1-8.707-8.707v-56.77a8.71 8.71 0 0 1 8.707-8.707h23.016a8.71 8.71 0 0 1 8.707 8.707v56.77a8.71 8.71 0 0 1-8.707 8.707zm0 0" fill="#9b5e34"/><path d="M104.82 181.055v27.934c-3.398.477-6.883.723-10.422.723H64.387v-28.656c0-4.809 3.906-8.715 8.715-8.715h23.008a8.71 8.71 0 0 1 8.711 8.715zm0 0" fill="#b56d3c"/><path d="M239.184 332.66v95.426c0 19.453 50.836 35.219 113.547 35.219s113.547-15.766 113.547-35.219v-93.785zm0 0" fill="#766d78"/><path d="M466.227 429.059c-1.645 18.996-51.832 34.246-113.496 34.246-62.707 0-113.547-15.77-113.547-35.215v-95.43l29.086.215v72.633c0 19.457 50.828 35.227 113.547 35.227 33.508 0 63.629-4.504 84.41-11.676zm0 0" fill="#655e67"/><path d="M348.191 252.773l-140.32 61.875c-7.977 3.516-7.977 13.992 0 17.508l140.32 61.875a11.32 11.32 0 0 0 9.074 0l140.32-61.875c7.977-3.52 7.977-13.992 0-17.508l-140.32-61.875a11.32 11.32 0 0 0-9.074 0zm0 0" fill="#544f56"/><path d="M497.59 332.16l-140.324 61.871a11.31 11.31 0 0 1-9.07 0L207.867 332.16c-7.977-3.523-7.977-13.992 0-17.516l23.398-10.316 138.754 61.188c2.871 1.254 6.199 1.254 9.07 0l116.93-51.566 1.57.695c7.977 3.523 7.977 13.992 0 17.516zm0 0" fill="#444145"/><path d="M352.91 315.707c-1.766-3.844-6.316-5.523-10.16-3.754l-81.426 37.707c-2.715 1.25-4.457 3.969-4.457 6.957v108.82l-25.832 34.293c-2.543 3.383-1.867 8.184 1.512 10.727a7.66 7.66 0 0 0 10.727-1.508l13.594-18.051v13.441a7.66 7.66 0 1 0 15.32 0v-13.441l13.598 18.051c2.543 3.379 7.348 4.051 10.727 1.508a7.66 7.66 0 0 0 1.508-10.727l-25.832-34.293V361.523l76.969-35.656a7.66 7.66 0 0 0 3.754-10.16zm0 0" fill="#ffe046"/><path d="M374.559 317.246c0-7.379-9.773-13.363-21.828-13.363s-21.828 5.984-21.828 13.363 9.773 13.363 21.828 13.363 21.828-5.984 21.828-13.363zm0 0" fill="#eec707"/></svg>