<svg xmlns="http://www.w3.org/2000/svg" xmlns:xlink="http://www.w3.org/1999/xlink" width="512" height="512" viewBox="0 0 509.185 509.185" xmlns:v="https://vecta.io/nano"><path d="M492.69 167.074h-30V83.588c0-20.472-16.655-37.127-37.128-37.127h-83.541v-30h83.541c37.015 0 67.128 30.113 67.128 67.127zm-67.127 325.654h-83.541v-30h83.541c20.473 0 37.128-16.655 37.128-37.128v-83.486h30V425.6c-.001 37.014-30.114 67.128-67.128 67.128z" fill="#ebd4ce"/><path d="M167.162 492.728h-83.54c-37.015 0-67.128-30.113-67.128-67.128v-83.486h30V425.6c0 20.473 16.655 37.128 37.128 37.128h83.54zM46.494 167.074h-30V83.588c0-37.014 30.113-67.127 67.128-67.127h83.541v30H83.622c-20.473 0-37.128 16.655-37.128 37.127z" fill="#f4e3df"/><g fill="#ff641a"><use xlink:href="#B"/><use xlink:href="#B"/></g><path d="M444.917 85.481c-3.685-4.195-16.32 3.077-20.304-.907 0 0 3.404-16.522-.916-20.303C377.323 23.688 316.818.012 254.621.004v138.295c24.537.007 50.393 8.716 70.956 24.102 4.398 3.291 17.298-4.079 21.293-.085 4.11 4.111-3.424 16.728-.083 21.295 30.182 41.254 30.372 100.993 0 141.97-3.375 4.553 4.209 17.158.084 21.284-4.181 4.181-16.659-3.474-21.304-.084-20.602 15.039-45.792 22.684-70.946 22.775V509.18c62.307-.008 122.674-23.544 169.086-64.26 4.234-3.714-3.114-16.284.906-20.303 4.348-4.348 16.313 3.681 20.304-.917 40.15-46.259 64.267-107.254 64.267-169.109.001-62.368-23.477-122.676-64.267-169.11z" fill="#ff3636"/><path d="m444.917 85.481-98.13 98.13c-3.02-3.92-6.33-7.7-9.92-11.29s-7.37-6.9-11.29-9.92l98.12-98.13c3.72 3.31 7.37 6.75 10.92 10.3s6.99 7.19 10.3 10.91z" fill="#ebd4ce"/><path d="M183.607 162.401c-3.92 3.02-7.7 6.33-11.29 9.92s-6.9 7.37-9.92 11.29l-98.13-98.13a257.73 257.73 0 0 1 10.3-10.91c3.55-3.55 7.19-6.99 10.92-10.29zm0 184.39l-98.12 98.12c-3.73-3.3-7.37-6.74-10.92-10.29s-6.99-7.19-10.3-10.92l98.13-98.12c3.02 3.92 6.33 7.69 9.92 11.28 3.59 3.6 7.37 6.91 11.29 9.93z" fill="#f4e3df"/><path d="m444.917 423.701c-3.31 3.73-6.75 7.37-10.3 10.92s-7.19 6.99-10.91 10.3l-98.14-98.14c3.93-3.01 7.7-6.32 11.3-9.92 3.59-3.59 6.9-7.36 9.92-11.28z" fill="#ebd4ce"/><defs ><path id="B" d="M424.613 84.574s3.404-16.522-.916-20.303C377.315 23.681 316.797.003 254.589.003c-62.241 0-122.712 23.648-169.102 64.278-4.295 3.762 3.158 16.218-.917 20.293-4.202 4.202-16.434-3.529-20.303.907C23.862 131.808 0 192.532 0 254.592c0 62.105 23.806 122.762 64.267 169.109 3.842 4.401 16.132-3.254 20.303.917 3.99 3.99-3.284 16.603.917 20.293 46.431 40.774 106.74 64.27 169.102 64.27 62.319 0 122.698-23.537 169.118-64.26 4.234-3.714-3.114-16.284.906-20.303 4.348-4.348 16.313 3.681 20.304-.917 40.15-46.259 64.267-107.254 64.267-169.109 0-62.369-23.478-122.677-64.267-169.111-3.685-4.195-16.319 3.077-20.304-.907zm-77.742 262.291c-4.181 4.181-16.659-3.474-21.304-.084-41.297 30.145-101.027 30.596-141.96.01-4.425-3.306-17.276 4.092-21.294.074-4.119-4.119 3.429-16.704.084-21.284-30.119-41.226-30.282-101.007 0-141.97 3.396-4.594-4.243-17.133-.085-21.292 4.17-4.169 16.689 3.485 21.295.082 20.454-15.11 46.662-24.103 70.986-24.103 24.546 0 50.414 8.711 70.984 24.103 4.398 3.291 17.298-4.079 21.293-.085 4.11 4.111-3.424 16.728-.083 21.295 30.182 41.254 30.372 100.993 0 141.97-3.375 4.554 4.21 17.158.084 21.284z"/></defs></svg>