<svg xmlns="http://www.w3.org/2000/svg" width="512" height="512" viewBox="0 0 512.003 512.003" xmlns:v="https://vecta.io/nano"><path d="M403.748 230.349v-82.595C403.748 66.151 337.597 0 256.005 0c-81.602 0-147.754 66.151-147.754 147.754v82.595m53.28 0v-82.595c0-52.1 42.384-94.473 94.473-94.473s94.463 42.374 94.463 94.473v82.595" fill="#d3dae0"/><path d="M264.623.257L256.005 0c-81.602 0-147.754 66.151-147.754 147.754v82.595h17.237v-82.595c0-78.709 61.545-143.033 139.135-147.497zm8.619 53.023l-8.619.397c48.064 4.368 85.844 44.882 85.844 94.076v82.595h17.237v-82.595c.001-52.099-42.372-94.473-94.462-94.473z" fill="#899ea8"/><path fill="#f79f00" d="M59.345 230.349h393.313v281.654H59.345z"/><path fill="#e48900" d="M59.345 230.349h34.473v281.654H59.345z"/><path d="M298.31 344.737c0-23.367-18.943-42.309-42.309-42.309s-42.309 18.942-42.309 42.309c0 16.094 8.988 30.088 22.216 37.24l-6.808 52.078h53.803l-6.808-52.078c13.229-7.152 22.215-21.145 22.215-37.24z" fill="#3e3d4c"/></svg>