<svg xmlns="http://www.w3.org/2000/svg" xmlns:xlink="http://www.w3.org/1999/xlink" width="512" height="512" xmlns:v="https://vecta.io/nano"><path d="M150 512H0v-55c0-30.328 24.672-55 55-55h40c30.328 0 55 24.672 55 55zm0 0" fill="#ff7b01"/><path d="M512 512H362v-55c0-30.328 24.672-55 55-55h40c30.328 0 55 24.672 55 55zm0 0" fill="#ff4f18"/><path d="M331 512H181v-55c0-30.328 24.672-55 55-55h40c30.328 0 55 24.672 55 55zm0 0" fill="#6fc8f1"/><path d="M331 457c0-30.328-24.672-55-55-55h-20v110h75zm0 0" fill="#4bbaed"/><path d="M90 331H60v-81h81v-48h30v78H90zm0 0" fill="#388cb3"/><path d="m452 331h-30v-51h-81v-78h30v48h81zm0 0" fill="#265d77"/><path d="m241 202h30v129h-30zm0 0" fill="#388cb3"/><path d="m256 202h15v129h-15zm0 0" fill="#265d77"/><path d="M442 217H70V0h372zm0 0" fill="#b7e4f8"/><path d="M256 0h186v217H256zm0 0" fill="#6fc8f1"/><path d="M256 150.125L70 23.949V0h372v23.949zm0 0" fill="#388cb3"/><g fill="#ffe565"><use xlink:href="#B"/><use xlink:href="#B" x="-181"/></g><use xlink:href="#B" x="181" fill="#ffd400"/><path d="M256 150.125L442 23.949V0H256zm0 0" fill="#265d77"/><path d="M256 316v116c31.98 0 58-26.02 58-58s-26.02-58-58-58zm0 0" fill="#ffd400"/><defs ><path id="B" d="M256 432c-31.98 0-58-26.02-58-58s26.02-58 58-58 58 26.02 58 58-26.02 58-58 58zm0 0"/></defs></svg>