<svg xmlns="http://www.w3.org/2000/svg" xmlns:xlink="http://www.w3.org/1999/xlink" width="512" height="512" xmlns:v="https://vecta.io/nano"><path fill="#68544f" d="M97 116.499L15 177.4 100.901 286z"/><path fill="#53433f" d="M415 116.499L411.099 286 497 177.4z"/><path d="M421 15v368.5c0 8.401-6.599 15-15 15H106c-8.401 0-15-6.599-15-15V15c0-8.401 6.599-15 15-15h300c8.401 0 15 6.599 15 15z" fill="#f7f0eb"/><path d="M421 15v368.5c0 8.401-6.599 15-15 15H256V0h150c8.401 0 15 6.599 15 15z" fill="#efe2dd"/><g fill="#e1d3ce"><use xlink:href="#B"/><use xlink:href="#B" y="60"/><path d="M271 226c0 8.401-6.599 15-15 15h-90c-8.401 0-15-6.599-15-15s6.599-15 15-15h90c8.401 0 15 6.599 15 15z"/></g><path d="M256 241v-30c8.401 0 15 6.599 15 15s-6.599 15-15 15zm90-60h-90v-30h90c8.401 0 15 6.599 15 15s-6.599 15-15 15zm0-60h-90V91h90c8.401 0 15 6.599 15 15s-6.599 15-15 15z" fill="#cdbfba"/><path d="M506.6 184.6c-.3 0-9.6-7.2-9.6-7.2L472.099 196 265 350.501c-2.699 2.098-6 3.3-9 3.3s-6.301-1.201-9-3.3L39.901 196 15 177.4s-9.3 7.2-9.6 7.2C2.1 187.301 0 191.499 0 196v271c0 24.901 20.099 45 45 45h422c24.901 0 45-20.099 45-45V196c0-4.501-2.1-8.699-5.4-11.4z" fill="#fdbf00"/><path d="M512 196v271c0 24.901-20.099 45-45 45H256V353.8c2.999 0 6.301-1.201 9-3.3L472.099 196 497 177.4s9.3 7.2 9.6 7.2c3.3 2.701 5.4 6.899 5.4 11.4z" fill="#ff9f00"/><defs ><path id="B" d="M361 106c0 8.401-6.599 15-15 15H166c-8.401 0-15-6.599-15-15s6.599-15 15-15h180c8.401 0 15 6.599 15 15z"/></defs></svg>