<svg xmlns="http://www.w3.org/2000/svg" width="768" height="768" xmlns:v="https://vecta.io/nano"><path fill="#757575" d="M320.932 431.722q46.163 0 78.476-32.314 32.314-32.314 32.314-78.476 0-46.163-32.314-78.476-32.314-32.314-78.476-32.314-46.163 0-78.476 32.314-32.314 32.314-32.314 78.476 0 46.163 32.314 78.476 32.314 32.314 78.476 32.314zm147.72 0l122.331 122.331-36.93 36.93-122.331-122.331v-19.619l-6.924-6.924q-43.854 38.084-103.866 38.084-66.936 0-113.675-46.163-46.74-46.163-46.74-113.098 0-66.936 46.74-113.675 46.74-46.74 113.675-46.74 66.936 0 113.098 46.74 46.163 46.74 46.163 113.675 0 24.235-11.541 54.818-11.541 30.583-26.543 49.048l6.924 6.924z"/></svg>