<svg xmlns="http://www.w3.org/2000/svg" xmlns:xlink="http://www.w3.org/1999/xlink" width="512" height="512" xmlns:v="https://vecta.io/nano"><path d="M497 128.533H15c-8.284 0-15 6.716-15 15v313.3C0 487.252 24.748 512 55.167 512H400.6a15 15 0 0 0 10.607-4.394l96.4-96.4c2.814-2.813 4.394-6.628 4.394-10.606V143.533c-.001-8.284-6.717-15-15.001-15z" fill="#e7f0ef"/><path d="M497 128.533H255.998V512H400.6a15 15 0 0 0 10.607-4.394l96.4-96.4c2.814-2.813 4.394-6.628 4.394-10.606V143.533c-.001-8.284-6.717-15-15.001-15z" fill="#c5e1e6"/><path d="M456.833 32.133H55.167C24.748 32.133 0 56.881 0 87.3v56.233h512V87.3c0-30.419-24.748-55.167-55.167-55.167z" fill="#ff5b5b"/><path d="M512 87.3c0-30.419-24.748-55.167-55.167-55.167H255.998v111.4H512z" fill="#ff0059"/><g fill="#c5e1e6"><use xlink:href="#B"/><use xlink:href="#B" x="-64.267"/></g><use xlink:href="#B" x="128.534" fill="#8db9c4"/><use xlink:href="#B" x="64.266" fill="#c5e1e6"/><g fill="#8db9c4"><use xlink:href="#B" x="257.067"/><path d="M352.4 94.267c-8.284 0-15-6.716-15-15V15c0-8.284 6.716-15 15-15s15 6.716 15 15v64.267c0 8.284-6.715 15-15 15z"/></g><circle cx="400.6" cy="400.6" fill="#e7f0ef" r="96.4"/><path d="M497 400.6c0-53.239-43.159-96.399-96.4-96.399V497c53.241 0 96.4-43.16 96.4-96.4z" fill="#c5e1e6"/><path d="M400.6 512c-61.426 0-111.4-49.974-111.4-111.4s49.974-111.399 111.399-111.399S512 339.174 512 400.6 462.025 512 400.6 512zm0-192.8c-44.884 0-81.399 36.516-81.399 81.399s36.516 81.4 81.399 81.4 81.4-36.515 81.4-81.4-36.516-81.399-81.4-81.399z" fill="#8db9c4"/><path d="M512 400.6c0-61.426-49.974-111.399-111.4-111.399v30c44.885 0 81.4 36.516 81.4 81.399S445.484 482 400.6 482v30c61.426 0 111.4-49.974 111.4-111.4z" fill="#678c97"/><path d="M159.598 238.866c-3.94 0-7.811-1.601-10.61-4.391a15.11 15.11 0 0 1-4.39-10.609c0-3.95 1.6-7.82 4.39-10.61a15.13 15.13 0 0 1 10.61-4.39c3.949 0 7.819 1.6 10.609 4.39s4.391 6.66 4.391 10.61a15.11 15.11 0 0 1-15 15zm64.269 0c-3.95 0-7.811-1.601-10.609-4.391-2.791-2.789-4.391-6.659-4.391-10.609a15.11 15.11 0 0 1 15-15 15.11 15.11 0 0 1 15 15c0 3.95-1.6 7.82-4.391 10.609-2.798 2.791-6.66 4.391-10.609 4.391z" fill="#3d5959"/><path d="M288.137 238.866a15.11 15.11 0 0 1-15-15c0-3.95 1.601-7.82 4.391-10.61a15.11 15.11 0 0 1 10.609-4.39 15.09 15.09 0 0 1 10.601 4.39 15.12 15.12 0 0 1 4.399 10.61 15.12 15.12 0 0 1-4.399 10.609 15.11 15.11 0 0 1-10.601 4.391zm64.259 0a15.11 15.11 0 0 1-10.6-4.391c-2.8-2.789-4.4-6.659-4.4-10.609s1.601-7.82 4.4-10.61a15.09 15.09 0 0 1 10.6-4.39c3.951 0 7.82 1.6 10.611 4.39s4.389 6.66 4.389 10.61-1.6 7.82-4.389 10.609a15.11 15.11 0 0 1-10.611 4.391zm64.271 0a15.13 15.13 0 0 1-10.61-4.391c-2.789-2.789-4.39-6.659-4.39-10.609s1.601-7.82 4.39-10.61a15.11 15.11 0 0 1 10.61-4.39c3.95 0 7.82 1.6 10.61 4.39s4.39 6.66 4.39 10.61-1.601 7.82-4.39 10.609c-2.8 2.791-6.66 4.391-10.61 4.391z" fill="#293939"/><path d="M95.337 303.136c-3.95 0-7.819-1.6-10.61-4.399a15.12 15.12 0 0 1-4.399-10.601c0-3.949 1.61-7.819 4.399-10.609a15.1 15.1 0 0 1 10.61-4.391c3.95 0 7.81 1.601 10.601 4.391a15.08 15.08 0 0 1 0 21.21c-2.792 2.799-6.661 4.399-10.601 4.399zm64.261 0a15.06 15.06 0 0 1-10.601-4.399c-2.8-2.79-4.399-6.66-4.399-10.601 0-3.949 1.6-7.819 4.399-10.609a15.09 15.09 0 0 1 10.601-4.391c3.949 0 7.819 1.601 10.609 4.391s4.391 6.66 4.391 10.609a15.11 15.11 0 0 1-4.391 10.601 15.1 15.1 0 0 1-10.609 4.399zm64.269 0c-3.95 0-7.811-1.6-10.609-4.399-2.791-2.79-4.391-6.66-4.391-10.601a15.11 15.11 0 0 1 15-15 15.11 15.11 0 0 1 15 15c0 3.94-1.6 7.811-4.391 10.601-2.798 2.799-6.66 4.399-10.609 4.399z" fill="#3d5959"/><path d="M288.137 303.136a15.08 15.08 0 0 1-10.609-4.399 15.09 15.09 0 0 1-4.391-10.601c0-3.96 1.601-7.819 4.391-10.609s6.65-4.391 10.609-4.391c3.95 0 7.811 1.601 10.601 4.391a15.08 15.08 0 0 1 0 21.21 15.08 15.08 0 0 1-10.601 4.399z" fill="#293939"/><path d="M95.337 367.397c-3.95 0-7.819-1.601-10.61-4.391a15.11 15.11 0 0 1-4.39-10.609c0-3.94 1.601-7.811 4.39-10.601a15.08 15.08 0 0 1 21.211 0c2.8 2.79 4.399 6.66 4.399 10.601 0 3.949-1.6 7.819-4.399 10.609-2.792 2.79-6.661 4.391-10.601 4.391zm64.261 0a15.13 15.13 0 0 1-10.61-4.391c-2.79-2.79-4.39-6.66-4.39-10.609a15.11 15.11 0 0 1 4.39-10.601c2.8-2.8 6.659-4.399 10.61-4.399a15.08 15.08 0 0 1 10.609 4.399 15.11 15.11 0 0 1 4.391 10.601c0 3.949-1.601 7.819-4.391 10.609s-6.66 4.391-10.609 4.391zm64.269 0a15.11 15.11 0 0 1-15-15c0-3.94 1.6-7.811 4.391-10.601 2.789-2.8 6.659-4.399 10.609-4.399s7.811 1.6 10.609 4.399c2.791 2.79 4.391 6.66 4.391 10.601a15.11 15.11 0 0 1-4.391 10.609c-2.798 2.79-6.66 4.391-10.609 4.391zm-128.54 64.269a15.11 15.11 0 0 1-10.601-4.39c-2.789-2.801-4.399-6.66-4.399-10.61s1.61-7.81 4.399-10.61a15.09 15.09 0 0 1 10.601-4.39c3.95 0 7.819 1.6 10.61 4.39 2.789 2.801 4.399 6.66 4.399 10.61s-1.61 7.81-4.399 10.61c-2.791 2.79-6.66 4.39-10.61 4.39zm64.271 0c-3.951 0-7.811-1.6-10.61-4.39-2.79-2.79-4.39-6.66-4.39-10.61s1.6-7.82 4.39-10.61a15.11 15.11 0 0 1 10.61-4.39c3.949 0 7.819 1.6 10.609 4.39 2.79 2.801 4.391 6.66 4.391 10.61a15.13 15.13 0 0 1-15 15zm64.269 0a15.11 15.11 0 0 1-15-15 15.11 15.11 0 0 1 15-15 15.11 15.11 0 0 1 15 15c0 3.95-1.6 7.81-4.391 10.61-2.798 2.79-6.66 4.39-10.609 4.39zM432.733 415.6H400.6c-8.284 0-15-6.716-15-15v-32.133c0-8.284 6.716-15 15-15s15 6.716 15 15V385.6h17.134c8.284 0 15 6.716 15 15s-6.716 15-15.001 15z" fill="#3d5959"/><path d="M432.733 385.6H415.6v-17.133c0-8.284-6.716-15-15-15V415.6h32.134c8.284 0 15-6.716 15-15s-6.716-15-15.001-15z" fill="#293939"/><defs ><path id="B" d="M159.6 94.267c-8.284 0-15-6.716-15-15V15c0-8.284 6.716-15 15-15s15 6.716 15 15v64.267c0 8.284-6.716 15-15 15z"/></defs></svg>