<svg xmlns="http://www.w3.org/2000/svg" xmlns:xlink="http://www.w3.org/1999/xlink" width="512" height="512" xmlns:v="https://vecta.io/nano"><path d="M84.25 15.738l55.51 55.509a18.05 18.05 0 0 1 0 25.522l-41.264 41.264a18.05 18.05 0 0 1-25.522 0l-55.51-55.509c-3.802-3.802-10.269-2.044-11.676 3.145-10.538 38.866-.572 82.127 29.944 112.643 33.21 33.209 81.512 42.079 122.819 26.674l240.234 262.702c24.667 26.974 66.852 27.916 92.699 2.07h0c25.969-25.969 24.876-68.396-2.395-92.994L225.788 159.276c16.692-41.833 8.118-91.403-25.749-125.271C169.523 3.489 126.261-6.477 87.395 4.061c-5.189 1.407-6.947 7.875-3.145 11.677zm379.726 428.216c0 10.614-8.604 19.218-19.218 19.218s-19.218-8.604-19.218-19.218 8.604-19.218 19.218-19.218 19.218 8.604 19.218 19.218z" fill="#605f6d"/><g fill="#53515e"><path d="M203.913 135.068l23.137 20.869c14.949-41.109 5.96-88.96-27.011-121.932a117.38 117.38 0 0 0-7.676-7.002c21.748 32.191 25.595 72.866 11.55 108.065zm172.82 328.504l22.053 24.115c24.667 26.974 66.852 27.916 92.699 2.07h0c25.969-25.969 24.876-68.397-2.395-92.994l-8.95-8.072c13.734 24.354 10.387 55.943-10.53 76.859h0c-25.847 25.845-68.21 24.997-92.877-1.978M158.552 224.985l-21.875-24.207c-38.224 14.256-82.429 7.708-115.132-19.662a116.69 116.69 0 0 0 14.187 17.195c33.21 33.21 81.513 42.08 122.82 26.674"/><path d="M305.844 231.483l-20.423 20.423-13.68-13.68a21.71 21.71 0 0 0-30.698 0l-18.692 18.692a52.06 52.06 0 0 1-.061 37.769l45.194 49.421c9.882-4.606 20.915-5.929 31.459-3.967 6.273 1.168 12.718-.819 17.229-5.331l10.727-10.727a21.71 21.71 0 0 0 0-30.697h0a19.35 19.35 0 0 1 0-27.36l8.175-8.176-29.23-26.367z"/></g><path d="M507.549 63.685l-35.127-35.127a7.1 7.1 0 0 0-11.294 1.706l-18.91 35.827-172.8 172.798 27.799 27.799 172.8-172.798 35.827-18.911a7.1 7.1 0 0 0 1.705-11.294z" fill="#e9ebf2"/><path d="M507.549 63.685l-8.868-8.868c.621 2.961-.682 6.193-3.628 7.747l-35.827 18.911-172.799 172.798-16.196-16.196-.812.812 27.799 27.799L470.017 93.89l35.827-18.911a7.1 7.1 0 0 0 1.705-11.294z" fill="#c7cad3"/><path d="M238.502 339.657c14.997-14.997 36.889-18.875 55.467-11.662l18.692-18.692a21.71 21.71 0 0 0 0-30.698l-55.159-55.159a21.71 21.71 0 0 0-30.697 0l-18.692 18.692c7.213 18.578 3.334 40.47-11.662 55.467s-36.889 18.875-55.467 11.662L41.89 408.361c-23.709 23.709-23.709 62.148 0 85.857h0c23.709 23.709 62.148 23.709 85.857 0l99.094-99.094c-7.215-18.577-3.336-40.47 11.661-55.467z" fill="#ffdc64"/><path d="M312.661 278.605l-13.043-13.043c1.827 7.178-.044 15.103-5.661 20.72l-18.692 18.692c-18.577-7.213-40.47-3.334-55.467 11.662s-18.876 36.889-11.662 55.467l-99.094 99.094c-21.631 21.631-55.517 23.516-79.297 5.677 2.917 6.28 6.965 12.163 12.145 17.344 23.709 23.709 62.148 23.709 85.857 0l99.094-99.094c-7.213-18.578-3.334-40.47 11.662-55.467s36.889-18.875 55.467-11.662l18.692-18.692c8.476-8.477 8.476-22.221-.001-30.698z" fill="#ffc850"/><g fill="#ff6b5c"><use xlink:href="#B"/><use xlink:href="#B" x="28.327" y="28.327"/></g><defs ><path id="B" d="M76.979 439.586a8.07 8.07 0 0 1-5.723-2.37c-3.16-3.161-3.16-8.285 0-11.446l76.667-76.667a8.1 8.1 0 0 1 11.446 0c3.16 3.161 3.16 8.285 0 11.446l-76.667 76.667a8.07 8.07 0 0 1-5.723 2.37z"/></defs></svg>