<svg xmlns="http://www.w3.org/2000/svg" version="1.1" xmlns:xlink="http://www.w3.org/1999/xlink" xmlns:svgjs="http://svgjs.com/svgjs" width="512" height="512" x="0" y="0" viewBox="0 0 64 64" style="enable-background:new 0 0 512 512" xml:space="preserve" class=""><g><path fill="#ffc9a0" d="M47.937 4.571 44.596 4a4 4 0 0 0-3.247.878l-6.708 5.63L45.19 27.762l7.972-6.69a11.908 11.908 0 0 0 3.775-5.777L60 12.725 51.001 2z" data-original="#ffc9a0" class=""></path><path fill="#fcbc90" d="M37.847 15.344a1 1 0 0 1-.644-1.766l3.895-3.267a.999.999 0 0 1 1.31.02 6.028 6.028 0 0 0 7.854.122 1 1 0 0 1 1.285 1.532 8.044 8.044 0 0 1-9.79.383l-3.269 2.742a.995.995 0 0 1-.641.234z" data-original="#fcbc90"></path><path fill="#d8a57c" d="m60 40-1 1H5l-1-1 4-12h48z" data-original="#d8a57c"></path><path fill="#d29060" d="M56.667 30H9.333L6 40l1 1h52l1-1z" data-original="#d29060"></path><path fill="#d29060" d="M4 40h56v22H4z" data-original="#d29060"></path><path fill="#cc854f" d="M6 40h54v22H6z" data-original="#cc854f" class=""></path><path fill="#5a5346" d="M48 34H16a1 1 0 0 1 0-2h32a1 1 0 0 1 0 2z" data-original="#5a5346" class=""></path><path fill="#f6faff" d="M35.526 8 16.474 19l8.66 15h13.359l9.033-5.215z" data-original="#f6faff"></path><path fill="#ebf4ff" d="m47.526 28.785-11-19.053-17.32 10L27.443 34h11.05z" data-original="#ebf4ff"></path><path fill="#74eaa8" d="m35.134 31.32-3-5.196-5.196 3L29.753 34h.74z" data-original="#74eaa8"></path><rect width="6.001" height="2" x="34.83" y="22.99" fill="#5a5346" rx="1" transform="rotate(-30 37.82 23.99)" data-original="#5a5346" class=""></rect><rect width="6.001" height="2" x="36.83" y="26.454" fill="#5a5346" rx="1" transform="rotate(-30 39.82 27.454)" data-original="#5a5346" class=""></rect><path fill="#ff456e" d="m21.937 20.464 5.196-3 3 5.196-5.196 3z" data-original="#ff456e"></path><rect width="6.001" height="2" x="29.83" y="14.33" fill="#5a5346" rx="1" transform="rotate(-30 32.823 15.33)" data-original="#5a5346" class=""></rect><rect width="4.31" height="2" x="31.943" y="18.217" fill="#5a5346" rx="1" transform="rotate(-30 34.09 19.216)" data-original="#5a5346" class=""></rect><path fill="#ffc9a0" d="M47.937 4.571 44.596 4a4 4 0 0 0-3.247.878L33.1 11.8a1 1 0 0 0-.123 1.41 3 3 0 0 0 4.226.37l3.9-3.273a.99.99 0 0 1 1.3.022 5.997 5.997 0 0 0 7.86.125" data-original="#ffc9a0" class=""></path><g fill="#5a5346"><path d="M20 56a1 1 0 0 1-.97-.757l-2-8a1 1 0 1 1 1.94-.486l1.03 4.12 1.03-4.12a1 1 0 1 1 1.94.485l-2 8A1 1 0 0 1 20 56zM28 56a3.003 3.003 0 0 1-3-3v-4a3 3 0 0 1 6 0v4a3.003 3.003 0 0 1-3 3zm0-8a1 1 0 0 0-1 1v4a1 1 0 0 0 2 0v-4a1 1 0 0 0-1-1zM38 46h-4a1 1 0 0 0 0 2h1v7a1 1 0 0 0 2 0v-7h1a1 1 0 0 0 0-2zM46 52a1 1 0 0 0 0-2h-3v-2h3a1 1 0 0 0 0-2h-4a1 1 0 0 0-1 1v8a1 1 0 0 0 1 1h4a1 1 0 0 0 0-2h-3v-2z" fill="#5a5346" data-original="#5a5346" class=""></path></g></g></svg>