<svg xmlns="http://www.w3.org/2000/svg" width="512" height="512" xmlns:v="https://vecta.io/nano"><path d="M467 0H361l-30 36v99c0 8.291 6.709 15 15 15h130.705L512 120V45c0-24.814-20.186-45-45-45z" fill="#3c3a41"/><path d="M361,0v135c0,8.399-6.599,15-15,15H63.701L0,120V45C0,20.099,20.099,0,45,0H361z" fill="#21aaf7"/><path d="M346 150h-90V0h105v135c0 8.399-6.599 15-15 15z" fill="#1689fc"/><path d="M0,120v347c0,24.899,20.099,45,45,45h422c24.901,0,45-20.101,45-45V120H0z" fill="#e5e5e5"/><path d="M421 226c0 8.399-6.599 15-15 15h-19.2l-56.7 169.799c-1.8 6-7.5 10.201-14.099 10.201s-12.299-4.2-14.099-10.201L256 273.399 210.099 410.8c-3.898 12.301-24.3 12.301-28.198 0L125.2 241H106c-8.401 0-15-6.601-15-15s6.599-15 15-15h60c8.401 0 15 6.599 15 15s-6.599 15-15 15h-9.3L196 358.599 235.3 241H226c-8.401 0-15-6.601-15-15s6.599-15 15-15h60c8.401 0 15 6.599 15 15s-6.599 15-15 15h-9.3L316 358.599 355.3 241H346c-8.401 0-15-6.601-15-15s6.599-15 15-15h60c8.401 0 15 6.599 15 15z" fill="#57555c"/><path d="M512,120v347c0,24.899-20.099,45-45,45H256V120H512z" fill="#c8c6cd"/><path d="M421 226c0 8.399-6.599 15-15 15h-19.2l-56.7 169.799c-1.8 6-7.5 10.201-14.099 10.201s-12.299-4.2-14.099-10.201L256 273.399V211h30c8.401 0 15 6.599 15 15s-6.599 15-15 15h-9.3L316 358.599 355.3 241H346c-8.401 0-15-6.601-15-15s6.599-15 15-15h60c8.401 0 15 6.599 15 15z" fill="#3c3a41"/><path d="M106 90H76c-8.291 0-16-6.709-16-15s7.709-15 16-15h30c8.291 0 15 6.709 15 15s-6.709 15-15 15zm90 0h-30c-8.291 0-15-6.709-15-15s6.709-15 15-15h30c8.291 0 15 6.709 15 15s-6.709 15-15 15zm105-15c0 8.399-6.599 15-15 15h-30c-8.401 0-15-6.601-15-15s6.599-15 15-15h30c8.401 0 15 6.599 15 15z" fill="#57555c"/><path d="M286 90h-30V60h30c8.401 0 15 6.599 15 15s-6.599 15-15 15z" fill="#3c3a41"/></svg>