<svg xmlns="http://www.w3.org/2000/svg" fill="#000000" width="48" height="48" xmlns:v="https://vecta.io/nano"><path d="M14.526 0C6.526 0 0 6.526 0 14.526v18.947A14.56 14.56 0 0 0 14.526 48h18.947A14.56 14.56 0 0 0 48 33.474V14.526A14.56 14.56 0 0 0 33.474 0zm0 3.789h18.947a10.71 10.71 0 0 1 10.737 10.737v18.947a10.71 10.71 0 0 1-10.737 10.737H14.526A10.71 10.71 0 0 1 3.789 33.474V14.526A10.71 10.71 0 0 1 14.526 3.789zm22.105 5.053c-1.396 0-2.526 1.131-2.526 2.526s1.131 2.526 2.526 2.526 2.526-1.131 2.526-2.526-1.131-2.526-2.526-2.526zM24 11.368c-6.953 0-12.632 5.678-12.632 12.632S17.047 36.632 24 36.632 36.632 30.953 36.632 24 30.953 11.368 24 11.368zm0 3.789c4.905 0 8.842 3.937 8.842 8.842S28.905 32.842 24 32.842 15.158 28.905 15.158 24s3.937-8.842 8.842-8.842z"/></svg>