<svg xmlns="http://www.w3.org/2000/svg" fill="#000000" width="50" height="50" xmlns:v="https://vecta.io/nano"><path d="M48.97 3.932c-.851-.722-2.189-.825-3.571-.27h-.002c-1.454.583-41.164 17.616-42.78 18.312-.294.102-2.862 1.06-2.597 3.194.236 1.924 2.3 2.721 2.552 2.813l10.095 3.457 3.685 12.213c.341 1.095.896 2.535 1.869 2.831.854.329 1.703.028 2.252-.403l6.172-5.725 9.964 7.771.237.142c.677.3 1.325.45 1.943.45.478 0 .937-.09 1.375-.269 1.493-.613 2.09-2.035 2.152-2.197l7.442-38.685c.454-2.066-.177-3.117-.788-3.634zM21.57 32.821l-3.406 9.082-3.406-11.352 26.11-19.299z"/></svg>