<svg xmlns="http://www.w3.org/2000/svg" xmlns:xlink="http://www.w3.org/1999/xlink" width="612.53" height="168.38" xmlns:v="https://vecta.io/nano"><g fill="#fff"><path d="M340.56 84.74h-26.35V3.48h26.35v9.75h-15.67v25.89h14.16v9.75h-14.16v26.12h15.67zm6.16-47.71c0-4.56 1.45-8.2 4.35-10.91s6.6-4.06 11.09-4.06 8.2 1.35 11.14 4.06 4.41 6.35 4.41 10.91v47.71h-10.68V37.03c0-1.55-.45-2.8-1.34-3.77s-2.07-1.45-3.54-1.45-2.63.46-3.48 1.39-1.28 2.21-1.28 3.83v47.71h-10.68V37.03zm38.54 0c0-4.56 1.47-8.2 4.41-10.91s6.66-4.06 11.14-4.06c4.49 0 8.18 1.35 11.09 4.06 2.9 2.71 4.35 6.35 4.35 10.91v6.73h-10.68v-6.73c0-1.55-.43-2.8-1.28-3.77s-2.01-1.45-3.48-1.45-2.65.48-3.54 1.45-1.33 2.23-1.33 3.77v4.53c0 1.78 1.06 3.48 3.19 5.11a45.16 45.16 0 0 0 6.96 4.35c2.51 1.28 4.84 3.23 6.96 5.86 2.13 2.63 3.19 5.69 3.19 9.17v4.76c0 4.57-1.47 8.2-4.41 10.91s-6.66 4.06-11.14 4.06c-4.49 0-8.18-1.35-11.09-4.06-2.9-2.71-4.35-6.34-4.35-10.91v-6.73h10.68v6.73c0 1.62.42 2.9 1.28 3.83.85.93 2.01 1.39 3.48 1.39s2.65-.48 3.54-1.45 1.33-2.22 1.33-3.77v-4.76c0-1.55-.7-3-2.09-4.35s-3.08-2.59-5.05-3.71-3.97-2.36-5.98-3.71-3.71-3.11-5.11-5.28c-1.39-2.17-2.09-4.64-2.09-7.43v-4.54zm38.53 0c0-4.56 1.47-8.2 4.41-10.91s6.65-4.06 11.14-4.06 8.18 1.35 11.09 4.06c2.9 2.71 4.35 6.35 4.35 10.91v6.85c0 2.71-.52 4.84-1.57 6.38-1.04 1.55-2.81 2.86-5.28 3.95l-13.47 6.04v10.68c0 1.55.45 2.81 1.33 3.77.89.97 2.07 1.45 3.54 1.45s2.63-.48 3.48-1.45 1.28-2.22 1.28-3.77v-6.85h10.68v6.85c0 4.57-1.45 8.2-4.35 10.91s-6.6 4.06-11.09 4.06-8.2-1.35-11.14-4.06-4.41-6.34-4.41-10.91v-33.9zm10.68 0v13l7.66-3.48c1.31-.62 1.97-1.51 1.97-2.67v-6.85c0-1.55-.43-2.8-1.28-3.77s-2.01-1.45-3.48-1.45-2.65.48-3.54 1.45c-.88.96-1.33 2.22-1.33 3.77zm28.91-24.44c-1.16-1.12-1.74-2.61-1.74-4.47s.58-3.35 1.74-4.47 2.67-1.68 4.53-1.68 3.37.56 4.53 1.68 1.74 2.61 1.74 4.47-.58 3.35-1.74 4.47-2.67 1.68-4.53 1.68-3.37-.56-4.53-1.68zm-.82 10.62h10.68v61.52h-10.68zm29.84 61.53h-10.68V36.22c0-4.33 1.29-7.76 3.89-10.27 2.59-2.51 6.05-3.77 10.39-3.77 4.33 0 7.8 1.26 10.39 3.77 2.59 2.52 3.89 5.94 3.89 10.27v7.43H499.6v-7.43c0-2.86-1.2-4.29-3.6-4.29s-3.6 1.43-3.6 4.29zM515.03 0h10.68v26.12c1.39-2.71 3.91-4.06 7.55-4.06 3.56 0 6.58 1.35 9.05 4.06 2.48 2.71 3.71 6.35 3.71 10.91v33.9c0 4.57-1.45 8.2-4.35 10.91s-6.6 4.06-11.09 4.06-8.2-1.35-11.14-4.06-4.41-6.34-4.41-10.91zm19.04 33.25c-.85-.97-2.01-1.45-3.48-1.45s-2.65.48-3.54 1.45-1.33 2.23-1.33 3.77v33.9c0 1.55.45 2.81 1.33 3.77.89.97 2.07 1.45 3.54 1.45s2.63-.48 3.48-1.45 1.28-2.22 1.28-3.77v-33.9c0-1.54-.43-2.8-1.28-3.77zm18.46 23.86v-9.75h19.27v9.75zM314.37 167.22v-56.77c0-5.41 1.58-9.67 4.74-12.78 3.16-3.12 7.35-4.67 12.58-4.67 2.66 0 5.16.62 7.49 1.86s4.01 2.82 5.02 4.74c.92-2.01 2.47-3.62 4.67-4.81S353.5 93 356.16 93c5.22 0 9.46 1.56 12.71 4.67 3.25 3.12 4.88 7.38 4.88 12.78v56.77h-12.64v-56.77c0-1.83-.48-3.28-1.44-4.33s-2.27-1.58-3.92-1.58-2.96.53-3.92 1.58-1.44 2.5-1.44 4.33v56.77h-12.65v-56.77c0-1.83-.5-3.28-1.51-4.33s-2.38-1.58-4.12-1.58c-3.39 0-5.09 1.97-5.09 5.91v56.77z"/><use xlink:href="#B"/><path d="M417.4 115.44v-9.75h6.04V92.22h10.68v13.47h8.59v9.75h-8.59v37.61c0 3.56 1.55 5.34 4.64 5.34 1.16 0 2.48-.31 3.95-.93v9.52c-1.7.77-3.56 1.16-5.57 1.16-4.26 0-7.6-1.26-10.04-3.77s-3.66-6.29-3.66-11.32v-37.61zm30.06 51.78v-47.94c0-4.57 1.33-8.16 4-10.8 2.67-2.63 6.21-3.95 10.62-3.95a13.31 13.31 0 0 1 6.33 1.57c1.97 1.04 3.38 2.38 4.24 4 .77-1.7 2.09-3.06 3.95-4.06s3.91-1.51 6.15-1.51c4.41 0 7.99 1.32 10.74 3.95s4.12 6.23 4.12 10.8v47.94h-10.68v-47.94c0-1.55-.41-2.77-1.22-3.66s-1.92-1.33-3.31-1.33-2.5.45-3.31 1.33c-.81.89-1.22 2.11-1.22 3.66v47.94h-10.68v-47.94c0-1.55-.43-2.77-1.28-3.66s-2.01-1.33-3.48-1.33c-2.86 0-4.29 1.67-4.29 4.99v47.94zm58.16-47.71c0-4.57 1.47-8.2 4.41-10.91s6.65-4.06 11.14-4.06 8.18 1.35 11.09 4.06c2.9 2.71 4.35 6.35 4.35 10.91v6.85c0 2.71-.52 4.84-1.57 6.38-1.04 1.55-2.81 2.86-5.28 3.95l-13.47 6.04v10.68c0 1.55.45 2.81 1.33 3.77.89.97 2.07 1.45 3.54 1.45s2.63-.48 3.48-1.45 1.28-2.22 1.28-3.77v-6.85h10.68v6.85c0 4.57-1.45 8.2-4.35 10.91s-6.6 4.06-11.09 4.06-8.2-1.35-11.14-4.06-4.41-6.34-4.41-10.91v-33.9zm10.68 0v13l7.66-3.48c1.31-.62 1.97-1.51 1.97-2.67v-6.85c0-1.55-.43-2.8-1.28-3.77s-2.01-1.45-3.48-1.45-2.65.48-3.54 1.45c-.88.96-1.33 2.22-1.33 3.77zm27.86 0c0-4.57 1.47-8.2 4.41-10.91s6.65-4.06 11.14-4.06 8.18 1.35 11.09 4.06c2.9 2.71 4.35 6.35 4.35 10.91v6.73h-10.68v-6.73c0-1.55-.43-2.8-1.28-3.77s-2.01-1.45-3.48-1.45-2.65.48-3.54 1.45-1.33 2.23-1.33 3.77v33.9c0 1.55.45 2.81 1.33 3.77.89.97 2.07 1.45 3.54 1.45s2.63-.48 3.48-1.45 1.28-2.22 1.28-3.77v-6.73h10.68v6.73c0 4.57-1.45 8.2-4.35 10.91s-6.6 4.06-11.09 4.06-8.2-1.35-11.14-4.06-4.41-6.34-4.41-10.91z"/><use xlink:href="#B" x="199.66"/><path d="M61.22 18.74c1.43-1.21 2.23-2.91 2.23-4.91 0-4.36-3.32-7.18-8.47-7.18H44.56v26h9.72c6.27 0 10.16-3.1 10.16-8.1 0-2.55-1.2-4.63-3.22-5.81m-9.91 3.59h2.62c3.77 0 3.77 1.12 3.77 2.02 0 .66 0 2.22-3.94 2.22h-2.45zm2.42-6.15h-2.42v-3.51h2.06c3.34 0 3.34.94 3.34 1.62 0 .47 0 1.89-2.98 1.89M84.3 6.06c-8.14 0-13.83 5.56-13.83 13.53 0 7.92 5.82 13.66 13.83 13.66 8.07 0 13.93-5.75 13.93-13.66 0-7.97-5.73-13.53-13.93-13.53m.04 20.88c-3.98 0-6.75-3.02-6.75-7.35 0-4.29 2.78-7.28 6.75-7.28 4 0 6.79 2.99 6.79 7.28-.01 4.33-2.8 7.35-6.79 7.35m40.33-12.28c0-4.94-3.8-8-9.92-8h-9.43v26h6.75v-9.93h.99l5.43 9.93h8.07l-6.58-10.94c2.96-1.23 4.69-3.78 4.69-7.06m-12.6-1.92h2.48c2.24 0 3.38.64 3.38 1.89 0 .63 0 2.12-3.74 2.12h-2.12zm29.28-6.08h-9.59v26h9.59c6.85 0 14.23-4.07 14.23-13 0-9.59-7.35-13-14.23-13m-2.84 6.14h2.19c7.03 0 7.84 3.91 7.84 6.85 0 5.61-4.27 6.78-7.84 6.78h-2.19zm30.9.07h11.35V6.66h-18.09v26h18.69v-6.28h-11.95v-4.05h10.76v-6.08h-10.76zm26.86-6.22l-11.31 26h7.51l2.12-5.36h8.42l2.18 5.36h7.59l-11.2-26zm4.27 14.5h-3.53l1.79-4.63zm30.96 1.45c0 1.98-.69 4.34-3.97 4.34-3.29 0-3.97-2.36-3.97-4.34V6.65h-6.75v16.11c0 6.17 4.41 10.49 10.72 10.49s10.72-4.31 10.72-10.49V6.65h-6.74V22.6zm20.18-15.94h-8.16l8.15 12.21-8.94 13.79h8.13l4.78-8.02 4.99 8.02h8.4l-9.28-13.71 7.97-12.29h-7.9l-4.04 6.79zm-25.31 40.59H195.9c-10.16 0-18.39 8.24-18.39 18.4v101.62h23.43V69.04h25.8c15.56 0 20.86 8.05 20.86 18.85 0 10.98-5.31 19.04-20.86 19.04h-16.28v21.6h15.91c31.11 0 45.02-17.21 45.02-40.63 0-23.44-13.91-40.65-45.02-40.65M0 46.95h21.78v120.31H0z"/><path d="M.04 33.03h21.78V6.73C9.79 6.73.04 16.48.04 28.51zm124.02 57.98L66.14 49.17v.02a14.95 14.95 0 0 0-7.86-2.24c-8.29 0-15.01 6.72-15.01 15.01v105.3h21.89V76.55l58.91 42.6V91.01zm-50.1 32.2l57.92 41.84v-.02a14.95 14.95 0 0 0 7.86 2.24c8.29 0 15.01-6.72 15.01-15.01V46.95h-21.89v90.71l-58.91-42.6v28.15z"/></g><defs ><path id="B" d="M392.56 126.24h-10.68v-6.73c0-4.57 1.47-8.2 4.41-10.91s6.66-4.06 11.14-4.06c4.49 0 8.18 1.35 11.09 4.06 2.9 2.71 4.35 6.35 4.35 10.91v33.9c0 4.57-1.45 8.2-4.35 10.91s-6.6 4.06-11.09 4.06c-4.57 0-8.3-1.33-11.2-4s-4.35-6.33-4.35-10.97v-5.69c0-6.58 3.13-11.1 9.4-13.58l10.91-4.53v-10.1c0-1.55-.43-2.8-1.28-3.77s-2.01-1.45-3.48-1.45-2.65.48-3.54 1.45-1.33 2.23-1.33 3.77zm0 27.16c0 1.55.44 2.81 1.33 3.77.89.97 2.07 1.45 3.54 1.45s2.63-.48 3.48-1.45 1.28-2.22 1.28-3.77v-13.7l-6.15 2.67c-2.32.93-3.48 2.71-3.48 5.34z"/></defs></svg>