<svg xmlns="http://www.w3.org/2000/svg" width="682.667" height="682.667" viewBox="0 0 512 512" preserveAspectRatio="xMidYMid meet" xmlns:v="https://vecta.io/nano"><path d="M238.5 35.6L226 37.1c-36.6 4.1-73.1 20-104.9 45.8-35.5 28.8-62.8 74.2-72.7 121-15.6 73.2 2.3 144.9 50.2 201.1 27.2 31.9 69.2 57.1 110 66 31.6 6.8 68.8 6.8 98.4-.1 25.5-5.9 52.6-17.4 70-29.7 23.1-16.2 34-27.3 49-50.2 6.4-9.8 21.4-39.3 20.2-39.7-2.6-1-72.7-19.3-73.6-19.3-.6 0-3 3.7-5.3 8.3-6.7 13-12.1 20.5-22 30.7-27.7 28.6-73.2 40.9-114.7 31.1-30.9-7.4-58.1-26.9-77.7-55.8-11.3-16.6-21-39-22.5-51.6l-.7-5.7 166.8-.2 166.9-.3 1.9-7c3.7-13.2 2.3-52.4-2.8-76.5-7.6-36.5-24.5-70-50.8-100.7-9.6-11.3-16.8-18-31.3-28.8-27.6-20.9-56.1-32.9-89.9-38.1-9.5-1.4-45.6-2.7-52-1.8zm42.3 73c26.2 4.7 54.6 21 72.5 41.8 16.1 18.7 30.1 46.5 32.6 64.8l.8 5.8H257.2 127.7l.7-5.7c1.5-12.8 10.9-34.3 22.7-52.1 6.2-9.2 25.9-29.1 34.8-35.1 9.6-6.5 27.4-14.7 38.3-17.6 16.9-4.5 37.9-5.2 56.6-1.9z"/></svg>