<?xml version="1.0" encoding="UTF-8" standalone="no"?>
<svg
   width="256"
   height="211.778"
   version="1.1"
   id="svg78"
   sodipodi:docname="search.svg"
   inkscape:version="1.1.2 (0a00cf5339, 2022-02-04)"
   xmlns:inkscape="http://www.inkscape.org/namespaces/inkscape"
   xmlns:sodipodi="http://sodipodi.sourceforge.net/DTD/sodipodi-0.dtd"
   xmlns="http://www.w3.org/2000/svg"
   xmlns:svg="http://www.w3.org/2000/svg">
  <defs
     id="defs82" />
  <sodipodi:namedview
     id="namedview80"
     pagecolor="#ffffff"
     bordercolor="#666666"
     borderopacity="1.0"
     inkscape:pageshadow="2"
     inkscape:pageopacity="0.0"
     inkscape:pagecheckerboard="0"
     showgrid="false"
     inkscape:zoom="5.1792599"
     inkscape:cx="73.562634"
     inkscape:cy="60.722962"
     inkscape:window-width="2560"
     inkscape:window-height="1376"
     inkscape:window-x="1920"
     inkscape:window-y="30"
     inkscape:window-maximized="1"
     inkscape:current-layer="svg78"
     height="423.55499px" />
  <g
     data-name="Group 107"
     id="g76"
     transform="matrix(1.7410146,0,0,1.7410146,-0.00689468,2.6498724e-4)">
    <path
       data-name="Path 574"
       d="m 129.164,80.771 c 15.139,16.742 -28.745,40.869 -64.2,40.869 -35.455,0 -59.992,-18.694 -64.2,-40.869 -10.215,-53.765 87.038,-87.938 64.2,-40.869 -33.287,68.61 52.278,27.684 64.2,40.869 z"
       fill="#3f3d56"
       id="path2" />
    <circle
       data-name="Ellipse 129"
       cx="1.29"
       cy="1.29"
       r="1.29"
       transform="translate(45.687,26.087)"
       fill="#d0cde1"
       id="circle4" />
    <circle
       data-name="Ellipse 130"
       cx="1.29"
       cy="1.29"
       r="1.29"
       transform="translate(28.205,103.323)"
       fill="#d0cde1"
       id="circle6" />
    <circle
       data-name="Ellipse 131"
       cx="0.57300001"
       cy="0.57300001"
       r="0.57300001"
       transform="translate(48.696,45.719)"
       fill="#d0cde1"
       id="circle8" />
    <circle
       data-name="Ellipse 132"
       cx="0.57300001"
       cy="0.57300001"
       r="0.57300001"
       transform="translate(18.604,75.524)"
       fill="#d0cde1"
       id="circle10" />
    <circle
       data-name="Ellipse 133"
       cx="0.57300001"
       cy="0.57300001"
       r="0.57300001"
       transform="translate(93.977,97.018)"
       fill="#d0cde1"
       id="circle12" />
    <circle
       data-name="Ellipse 134"
       cx="0.57300001"
       cy="0.57300001"
       r="0.57300001"
       transform="translate(16.741,46.292)"
       fill="#d0cde1"
       id="circle14" />
    <path
       data-name="Path 575"
       d="m 52.134,31.676 h -0.287 v -0.287 h -0.143 v 0.287 h -0.287 v 0.143 h 0.287 v 0.287 h 0.143 v -0.287 h 0.287 z"
       fill="#d0cde1"
       id="path16" />
    <path
       data-name="Path 576"
       d="M 30.21,36.405 H 29.923 V 36.118 H 29.78 v 0.287 h -0.287 v 0.143 h 0.287 v 0.287 h 0.143 v -0.287 h 0.287 z"
       fill="#d0cde1"
       id="path18" />
    <path
       data-name="Path 577"
       d="m 15.881,63.345 h -0.282 v -0.287 h -0.143 v 0.287 h -0.287 v 0.143 h 0.287 v 0.287 h 0.143 v -0.287 h 0.287 z"
       fill="#d0cde1"
       id="path20" />
    <circle
       data-name="Ellipse 135"
       cx="0.57300001"
       cy="0.57300001"
       r="0.57300001"
       transform="translate(55.574,109.342)"
       fill="#d0cde1"
       id="circle22" />
    <circle
       data-name="Ellipse 136"
       cx="0.57300001"
       cy="0.57300001"
       r="0.57300001"
       transform="translate(53.711,80.11)"
       fill="#d0cde1"
       id="circle24" />
    <circle
       data-name="Ellipse 137"
       cx="0.57300001"
       cy="0.57300001"
       r="0.57300001"
       transform="translate(121.49,90.714)"
       fill="#d0cde1"
       id="circle26" />
    <path
       data-name="Path 578"
       d="m 52.851,97.162 h -0.287 v -0.287 h -0.143 v 0.287 h -0.287 v 0.143 h 0.287 v 0.287 h 0.143 v -0.287 h 0.287 z"
       fill="#d0cde1"
       id="path28" />
    <path
       data-name="Path 579"
       d="m 80.65,107.336 h -0.286 v -0.286 h -0.143 v 0.286 h -0.287 v 0.143 h 0.287 v 0.287 h 0.143 v -0.287 h 0.286 z"
       fill="#d0cde1"
       id="path30" />
    <path
       data-name="Path 580"
       d="M 10.434,81.83 H 10.147 V 81.543 H 10.004 V 81.83 H 9.717 v 0.143 h 0.287 v 0.286 h 0.143 v -0.286 h 0.287 z"
       fill="#d0cde1"
       id="path32" />
    <path
       data-name="Path 581"
       d="m 50.272,61.195 h -0.287 v -0.287 h -0.143 v 0.287 h -0.284 v 0.143 h 0.287 v 0.287 h 0.143 v -0.287 h 0.287 z"
       fill="#d0cde1"
       id="path34" />
    <path
       data-name="Path 582"
       d="m 32.646,44.286 h -0.287 v -0.287 h -0.143 v 0.287 h -0.287 v 0.143 h 0.287 v 0.287 h 0.143 v -0.287 h 0.287 z"
       fill="#d0cde1"
       id="path36" />
    <path
       data-name="Path 583"
       d="m 44.401,72.515 h -0.287 v -0.287 h -0.143 v 0.287 h -0.287 v 0.143 h 0.287 v 0.287 h 0.143 v -0.287 h 0.287 z"
       fill="#d0cde1"
       id="path38" />
    <path
       data-name="Path 584"
       d="m 27.201,90.284 h -0.287 v -0.287 h -0.143 v 0.287 h -0.287 v 0.143 h 0.287 v 0.287 h 0.143 v -0.287 h 0.287 z"
       fill="#d0cde1"
       id="path40" />
    <ellipse
       data-name="Ellipse 138"
       cx="8.4540005"
       cy="1.29"
       rx="8.4540005"
       ry="1.29"
       transform="translate(24.622,63.487)"
       fill="#f3c420"
       id="ellipse42" />
    <path
       data-name="Path 585"
       d="m 33.937,65.203 c -3.456,0 -8.6,-0.382 -8.6,-1.433 0,-1.051 5.142,-1.433 8.6,-1.433 3.458,0 8.6,0.382 8.6,1.433 0,1.051 -5.144,1.433 -8.6,1.433 z m 0,-2.579 A 41.61,41.61 0 0 0 27.98,63 c -1.863,0.284 -2.355,0.628 -2.355,0.77 0,0.142 0.492,0.486 2.355,0.77 a 47.349,47.349 0 0 0 11.913,0 c 1.862,-0.284 2.355,-0.628 2.355,-0.77 0,-0.142 -0.492,-0.486 -2.355,-0.77 a 41.611,41.611 0 0 0 -5.956,-0.372 z"
       fill="#d0cde1"
       id="path44" />
    <path
       data-name="Path 587"
       d="M 135.711,75.641 C 123.784,62.457 38.224,103.382 71.506,34.774 86.342,4.191 50.482,7.906 26.343,29.007 49.718,12.956 77.934,12.494 64.484,40.219 c -33.282,68.61 52.283,27.684 64.2,40.869 5.547,6.135 3.169,13.261 -3.816,19.829 12.011,-7.871 17.972,-17.392 10.843,-25.276 z"
       fill="#e6e6e6"
       id="path46" />
    <path
       data-name="Path 588"
       d="m 65.549,121.377 -0.184,-0.069 a 10.753,10.753 0 0 1 -6.916,-12.825 l 0.044,-0.192 0.184,0.069 a 10.753,10.753 0 0 1 6.915,12.825 z m -5.843,-5.295 a 12.047,12.047 0 0 0 5.59,4.826 10.37,10.37 0 0 0 -6.551,-12.149 12.062,12.062 0 0 0 0.961,7.323 z"
       fill="#d0cde1"
       id="path48" />
    <path
       data-name="Path 589"
       d="m 60.847,115.188 a 12.29,12.29 0 0 1 4.7,6.1 10.582,10.582 0 0 1 -12.292,-7.4 12.291,12.291 0 0 1 7.592,1.3 z"
       fill="#f3c420"
       id="path50" />
    <path
       data-name="Path 590"
       d="m 108.473,41.035 c 0,0 -7.777,7.622 -4.511,8.555 3.266,0.933 7,-7 7,-7 z"
       fill="#ffb9b9"
       id="path52" />
    <path
       data-name="Path 591"
       d="m 116.25,66.701 -0.933,4.355 7,0.311 -1.089,-4.667 z"
       fill="#ffb9b9"
       id="path54" />
    <path
       data-name="Path 592"
       d="m 138.338,93.611 -0.933,4.355 7,0.311 -1.089,-4.667 z"
       fill="#ffb9b9"
       id="path56" />
    <path
       data-name="Path 593"
       d="m 126.05,37.613 0.622,2.489 c 0,0 -17.266,-3.422 -16.333,5.289 a 60.166,60.166 0 0 0 4.978,17.11 c 0,0 -0.311,2.8 0.311,3.267 0.622,0.467 0,2.022 0,2.022 0,0 5.755,0.778 5.911,-0.622 a 9.756,9.756 0 0 0 -0.156,-2.8 c 0,0 0.311,0 0,-1.556 -0.311,-1.556 -1.568,-14.1 -2.5,-15.811 0,0 8.256,6.323 12.612,5.545 a 40.993,40.993 0 0 0 1.867,14.466 c 2.489,8.244 2.489,9.177 2.489,9.177 0,0 2.955,15.711 2.178,17.577 l -0.156,0.778 h 5.755 c 0,0 -0.467,-8.244 0,-9.333 0.467,-1.089 0.467,-10.422 -2.178,-15.088 -1.873,-3.3 -1.524,-12.886 -0.5,-16.674 a 19.591,19.591 0 0 0 0.573,-8.884 10.407,10.407 0 0 0 -4.118,-6.952 z"
       fill="#2f2e41"
       id="path58" />
    <circle
       data-name="Ellipse 139"
       cx="5.5999999"
       cy="5.5999999"
       r="5.5999999"
       transform="translate(125.039,3.003)"
       fill="#ffb9b9"
       id="circle60" />
    <path
       data-name="Path 594"
       d="m 129.161,12.57 c 0,0 1.711,4.978 1.556,5.911 -0.155,0.933 4.978,-1.867 4.978,-1.867 0,0 -2.022,-4.978 -1.4,-6.378 z"
       fill="#ffb9b9"
       id="path62" />
    <path
       data-name="Path 595"
       d="m 135.383,14.899 -5.444,2.178 0.311,1.867 c 0,0 -0.467,0.622 -0.311,0.933 0.156,0.311 -2.022,1.555 -1.711,2.022 0.311,0.467 -1.867,2.333 -1.711,2.8 0.156,0.467 -4.978,3.267 -2.178,8.711 a 6.676,6.676 0 0 1 1.27,4.119 q -0.01,0.118 -0.025,0.237 c -0.311,2.333 11.822,-0.311 11.822,-0.311 v -2.644 c 0,0 1.089,-0.467 0.933,-2.489 -0.156,-2.022 -1.089,-1.089 0,-2.178 1.089,-1.089 1.089,-0.933 0.933,-1.867 -0.062,-0.373 -0.075,-1.713 -0.067,-3.188 a 14.154,14.154 0 0 0 -2.888,-8.634 z"
       fill="#d0cde1"
       id="path64" />
    <path
       data-name="Path 596"
       d="m 132.428,18.947 -10.111,10.577 -14.777,11.666 3.267,2.644 27.221,-18.2 c 0,0 2.333,-9.954 -5.6,-6.687 z"
       fill="#d0cde1"
       id="path66" />
    <path
       data-name="Path 597"
       d="m 116.717,69.034 c 0,0 -1.089,-1.867 -1.867,-1.244 l -5.444,4.355 c 0,0 -9.644,2.8 -0.311,4.978 0,0 5.133,0.778 6.222,0 a 3.609,3.609 0 0 1 3.267,-0.311 c 0.467,0.311 6.378,-0.156 6.378,-1.4 0,-1.244 -3.26,-6.683 -3.26,-6.683 0,0 -1.87,2.171 -4.985,0.305 z"
       fill="#2f2e41"
       id="path68" />
    <path
       data-name="Path 598"
       d="m 138.805,95.944 c 0,0 -1.089,-1.867 -1.867,-1.244 l -5.444,4.355 c 0,0 -9.644,2.8 -0.311,4.978 0,0 5.133,0.778 6.222,0 a 3.609,3.609 0 0 1 3.267,-0.311 c 0.467,0.311 6.378,-0.156 6.378,-1.4 0,-1.244 -3.26,-6.683 -3.26,-6.683 0,0 -1.874,2.172 -4.985,0.305 z"
       fill="#2f2e41"
       id="path70" />
    <path
       data-name="Path 599"
       d="m 123.928,6.382 c 0,0 0.947,-8.323 9.045,-5.96 0,0 5.729,-1.165 7.752,5.99 l 2.054,7.5 -0.94,-0.489 -0.416,0.956 -1.5,0.411 -0.67,-1.268 -0.282,1.561 -10.361,2.095 a 16.1,16.1 0 0 0 3.479,-9.867 l -1.029,1.135 z"
       fill="#2f2e41"
       id="path72" />
    <path
       data-name="Path 602"
       d="m 41.055,60.267 -5.82,-5.82 a 5.266,5.266 0 1 0 -1.515,1.515 l 5.82,5.82 z M 28.181,54.209 a 3.748,3.748 0 1 1 5.3,0 3.749,3.749 0 0 1 -5.3,-0.002 z"
       fill="#f3c420"
       id="path74" />
  </g>
</svg>
